<svg id="Capa_1" enable-background="new 0 0 512 512" height="512" viewBox="0 0 512 512" width="512" xmlns="http://www.w3.org/2000/svg" xmlns:xlink="http://www.w3.org/1999/xlink"><linearGradient id="SVGID_1_" gradientUnits="userSpaceOnUse" x1="80" x2="432" y1="256" y2="256"><stop offset="0" stop-color="#80d8ff"/><stop offset="1" stop-color="#ea80fc"/></linearGradient><g><path d="m352 336.001c0 11.046-8.954 20-20 20s-20-8.954-20-20 8.954-20 20-20 20 8.954 20 20zm80-316.001v472c0 11.046-8.954 20-20 20h-312c-11.046 0-20-8.954-20-20v-472c0-11.046 8.954-20 20-20h312c11.046 0 20 8.954 20 20zm-40 20h-272v432h272zm-232 216v-156c0-11.046 8.954-20 20-20h152c11.046 0 20 8.954 20 20v156c0 11.046-8.954 20-20 20h-152c-11.046 0-20-8.954-20-20zm40-20h112v-116h-112z" fill="url(#SVGID_1_)"/></g></svg>